<?xml version="1.0" encoding="UTF-8"?>
<!DOCTYPE svg PUBLIC "-//W3C//DTD SVG 1.1//EN" "http://www.w3.org/Graphics/SVG/1.1/DTD/svg11.dtd">
<svg version="1.1" xmlns="http://www.w3.org/2000/svg" xmlns:xlink="http://www.w3.org/1999/xlink" x="0" y="0" width="200" height="36.619" viewBox="0, 0, 200, 36.619">
	<g id="Ebene_1" transform="translate(-0.1, 0.105)">
		<g>
			<path d="M20.088,27.933 C21.366,22.981 22.573,18.281 23.779,13.581 C24.878,9.313 25.976,5.046 27.038,0.778 C27.183,0.184 27.399,-0.104 28.101,-0.104 C31.666,-0.068 35.25,-0.086 38.815,-0.086 C39.085,-0.086 39.337,-0.05 39.661,-0.032 C39.661,11.87 39.661,23.719 39.661,35.622 C37.014,35.622 34.367,35.622 31.648,35.622 C31.648,26.708 31.648,17.759 31.648,8.809 C31.612,8.809 31.576,8.791 31.558,8.791 C31.27,10.034 31,11.276 30.658,12.519 C28.569,20.045 26.48,27.59 24.355,35.099 C24.283,35.333 23.905,35.658 23.671,35.676 C21.186,35.712 18.683,35.712 16.198,35.676 C15.946,35.676 15.55,35.369 15.496,35.135 C13.137,26.618 10.814,18.101 8.473,9.583 C8.401,9.331 8.329,9.079 8.203,8.647 C8.203,17.759 8.203,26.69 8.203,35.658 C5.52,35.658 2.891,35.658 0.172,35.658 C0.154,35.333 0.118,35.027 0.118,34.703 C0.118,23.449 0.118,12.194 0.1,0.958 C0.1,0.148 0.28,-0.122 1.144,-0.104 C4.692,-0.05 8.221,-0.05 11.769,-0.104 C12.615,-0.122 12.957,0.112 13.155,0.94 C15.352,9.619 17.585,18.299 19.818,26.96 C19.854,27.212 19.926,27.446 20.088,27.933 z" fill="#000000"/>
			<path d="M149.882,35.694 C147.127,35.694 144.534,35.694 141.815,35.694 C141.815,35.315 141.815,34.955 141.815,34.613 C141.779,29.337 141.779,24.061 141.707,18.767 C141.689,17.741 141.491,16.678 141.185,15.688 C140.645,13.941 139.33,13.077 137.457,13.005 C135.621,12.933 134.342,13.725 133.586,15.364 C132.649,17.38 132.577,19.541 132.559,21.702 C132.523,26.024 132.559,30.345 132.559,34.667 C132.559,34.991 132.559,35.315 132.559,35.694 C129.84,35.694 127.211,35.694 124.51,35.694 C124.51,26.564 124.51,17.398 124.51,8.179 C127.139,8.179 129.768,8.179 132.505,8.179 C132.505,9.475 132.505,10.772 132.505,12.068 C132.577,12.104 132.667,12.122 132.739,12.158 C133.19,11.42 133.604,10.628 134.126,9.944 C134.54,9.385 135.044,8.827 135.639,8.503 C138.898,6.702 144.174,7.134 146.929,9.511 C147.883,10.34 148.55,11.474 149.414,12.519 C149.81,11.996 150.368,11.384 150.782,10.664 C151.899,8.773 153.61,7.909 155.698,7.585 C158.147,7.207 160.56,7.315 162.793,8.467 C165.512,9.854 166.935,12.176 167.097,15.166 C167.259,18.155 167.259,21.162 167.277,24.151 C167.295,27.897 167.277,31.66 167.277,35.405 C167.277,35.459 167.259,35.513 167.223,35.658 C164.594,35.658 161.947,35.658 159.156,35.658 C159.156,35.315 159.156,34.973 159.156,34.631 C159.102,29.175 159.084,23.719 158.994,18.263 C158.976,17.416 158.814,16.534 158.543,15.706 C157.985,13.977 156.725,13.095 154.906,13.005 C153.051,12.915 151.683,13.707 150.927,15.346 C149.954,17.416 149.9,19.649 149.882,21.864 C149.846,26.132 149.864,30.382 149.864,34.649 C149.882,34.955 149.882,35.279 149.882,35.694 z" fill="#000000"/>
			<path d="M69.175,35.676 C66.708,35.676 64.151,35.676 61.522,35.676 C61.342,34.433 61.162,33.227 60.982,32.02 C60.928,32.002 60.874,31.984 60.82,31.966 C60.585,32.524 60.297,33.065 60.117,33.641 C59.883,34.379 59.415,34.847 58.713,35.153 C55.453,36.594 52.14,36.972 48.773,35.604 C42.723,33.155 42.614,25.123 47.188,21.828 C49.781,19.955 52.77,19.271 55.886,19.001 C57.488,18.857 59.109,18.839 60.73,18.767 C61.378,15.85 60.333,13.617 58.082,13.095 C55.219,12.447 53.563,13.671 52.644,17.218 C52.482,17.236 52.32,17.272 52.14,17.272 C49.799,17.272 47.458,17.272 45.027,17.272 C44.937,15.652 45.37,14.211 46.126,12.861 C47.674,10.088 50.177,8.593 53.167,7.873 C56.264,7.134 59.361,7.207 62.422,8.053 C66.402,9.151 68.581,11.996 68.761,16.318 C68.869,18.929 68.869,21.54 68.923,24.151 C69.013,27.951 69.103,31.786 69.175,35.676 z M60.82,23.665 C60.225,23.629 59.757,23.557 59.271,23.575 C57.416,23.593 55.544,23.683 53.923,24.745 C51.78,26.132 51.78,29.301 53.923,30.4 C56.102,31.498 58.983,30.598 60.153,28.455 C60.964,26.978 60.874,25.358 60.82,23.665 z" fill="#000000"/>
			<path d="M91.666,21.846 C91.648,17.543 92.818,13.671 96.167,10.736 C99.102,8.179 102.65,7.351 106.449,7.405 C109.546,7.441 112.464,8.107 115.039,9.908 C118.676,12.447 120.315,16.102 120.639,20.406 C120.891,23.557 120.477,26.636 118.964,29.481 C117.109,32.938 114.21,35.045 110.429,35.964 C106.827,36.828 103.262,36.72 99.823,35.315 C94.619,33.173 92.206,29.013 91.666,23.575 C91.612,22.981 91.666,22.404 91.666,21.846 z M99.679,21.756 C100.057,23.575 100.237,25.304 100.795,26.924 C101.551,29.193 103.19,30.652 105.675,30.832 C108.178,31.012 110.105,29.949 111.113,27.662 C112.806,23.863 112.806,19.973 111.149,16.174 C110.195,13.995 108.412,12.933 105.999,12.969 C103.532,13.023 101.785,14.283 100.939,16.48 C100.291,18.155 100.075,20.009 99.679,21.756 z" fill="#000000"/>
			<path d="M171.058,21.882 C171.04,17.579 172.193,13.689 175.542,10.754 C178.477,8.179 182.007,7.351 185.806,7.387 C188.903,7.423 191.82,8.071 194.395,9.872 C198.033,12.393 199.689,16.048 200.032,20.352 C200.284,23.575 199.869,26.69 198.285,29.589 C196.43,32.975 193.567,35.027 189.858,35.928 C186.274,36.792 182.691,36.702 179.251,35.315 C173.993,33.173 171.581,28.977 171.058,23.521 C171.022,22.963 171.058,22.422 171.058,21.882 z M191.946,21.936 C191.568,20.154 191.388,18.443 190.848,16.84 C190.128,14.679 188.615,13.239 186.22,13.005 C183.699,12.753 181.682,13.689 180.602,15.994 C178.801,19.829 178.837,23.791 180.53,27.644 C181.52,29.877 183.411,30.958 185.878,30.832 C188.309,30.724 189.966,29.373 190.758,27.194 C191.352,25.502 191.568,23.665 191.946,21.936 z" fill="#000000"/>
			<path d="M84.247,8.305 C86.299,8.305 88.172,8.305 90.117,8.305 C90.117,10.016 90.117,11.654 90.117,13.419 C88.208,13.419 86.317,13.419 84.355,13.419 C84.319,13.797 84.283,14.049 84.283,14.319 C84.283,18.335 84.283,22.35 84.283,26.384 C84.283,27.104 84.355,27.825 84.445,28.527 C84.643,29.841 85.255,30.508 86.57,30.706 C87.542,30.85 88.532,30.85 89.631,30.94 C89.631,32.47 89.649,34.019 89.613,35.568 C89.613,35.73 89.361,36 89.217,36.018 C86.299,36.378 83.364,36.702 80.465,35.928 C78.016,35.279 76.63,33.677 76.378,31.156 C76.234,29.697 76.18,28.221 76.18,26.762 C76.143,22.44 76.161,18.119 76.161,13.815 C76.161,13.761 76.143,13.707 76.107,13.527 C74.811,13.527 73.478,13.527 72.074,13.527 C72.074,11.762 72.074,10.106 72.074,8.341 C73.406,8.341 74.739,8.341 76.18,8.341 C76.18,5.982 76.18,3.713 76.18,1.408 C78.899,1.408 81.528,1.408 84.265,1.408 C84.247,3.641 84.247,5.91 84.247,8.305 z" fill="#000000"/>
		</g>
	</g>
</svg>
